<svg width="64" height="64" viewBox="0 0 64 64" fill="none" xmlns="http://www.w3.org/2000/svg">
  <!-- Background circle -->
  <circle cx="32" cy="32" r="30" fill="#2563eb" stroke="#1d4ed8" stroke-width="2"/>
  
  <!-- Bluetooth symbol -->
  <path d="M32 12L40 20L36 24L40 28L32 36V12Z" fill="white" opacity="0.9"/>
  <path d="M32 36L24 28L28 24L24 20L32 12V36Z" fill="white" opacity="0.7"/>
  <circle cx="26" cy="24" r="2" fill="white"/>
  <circle cx="38" cy="24" r="2" fill="white"/>
  
  <!-- Chat bubbles -->
  <path d="M18 44C18 42.9 18.9 42 20 42H26C27.1 42 28 42.9 28 44V48C28 49.1 27.1 50 26 50H22L18 54V44Z" fill="white" opacity="0.8"/>
  <path d="M36 48C36 46.9 36.9 46 38 46H44C45.1 46 46 46.9 46 48V52C46 53.1 45.1 54 44 54H40L36 58V48Z" fill="white" opacity="0.6"/>
  
  <!-- Connection dots -->
  <circle cx="20" cy="32" r="2" fill="#00d4aa"/>
  <circle cx="44" cy="32" r="2" fill="#00d4aa"/>
  <line x1="22" y1="32" x2="30" y2="32" stroke="#00d4aa" stroke-width="2" opacity="0.7"/>
  <line x1="34" y1="32" x2="42" y2="32" stroke="#00d4aa" stroke-width="2" opacity="0.7"/>
</svg>